<svg width="25" height="24" viewBox="0 0 25 24" fill="none" xmlns="http://www.w3.org/2000/svg">
<path d="M17 12.75C20.09 9.94 23 7.31 23 5.05C23 3.2 21.55 1.75 19.7 1.75C18.66 1.75 17.65 2.24 17 3C16.34 2.24 15.34 1.75 14.3 1.75C12.45 1.75 11 3.2 11 5.05C11 7.31 13.91 9.94 17 12.75ZM14.3 3.75C14.74 3.75 15.19 3.96 15.48 4.3L17 6.09L18.52 4.3C18.81 3.96 19.26 3.75 19.7 3.75C20.44 3.75 21 4.31 21 5.05C21 6.17 18.96 8.22 17 10.04C15.04 8.22 13 6.16 13 5.05C13 4.31 13.56 3.75 14.3 3.75Z" fill="black"/>
<path d="M20 15.75H18C18 14.55 17.25 13.47 16.13 13.05L9.97 10.75H2V21.75H8V20.31L15 22.25L23 19.75V18.75C23 17.09 21.66 15.75 20 15.75ZM4 19.75V12.75H6V19.75H4ZM14.97 20.16L8 18.23V12.75H9.61L15.43 14.92C15.77 15.05 16 15.38 16 15.75C16 15.75 14.01 15.7 13.7 15.6L11.32 14.81L10.69 16.71L13.07 17.5C13.58 17.67 14.11 17.76 14.65 17.76H20C20.39 17.76 20.74 17.99 20.9 18.32L14.97 20.16Z" fill="black"/>
</svg>
