<svg width="21" height="20" viewBox="0 0 21 20" fill="none" xmlns="http://www.w3.org/2000/svg">
<path d="M11.167 4.37508C12.0837 4.37508 12.8337 3.62508 12.8337 2.70841C12.8337 1.79175 12.0837 1.04175 11.167 1.04175C10.2503 1.04175 9.50033 1.79175 9.50033 2.70841C9.50033 3.62508 10.2503 4.37508 11.167 4.37508ZM8.08366 7.20841L5.75033 18.9584H7.50033L9.00033 12.2917L10.7503 13.9584V18.9584H12.417V12.7084L10.667 11.0417L11.167 8.54175C12.2503 9.79175 13.917 10.6251 15.7503 10.6251V8.95842C14.167 8.95842 12.8337 8.12508 12.167 6.95842L11.3337 5.62508C10.867 4.88341 9.93366 4.58341 9.12533 4.92508L4.91699 6.70842V10.6251H6.58366V7.79175L8.08366 7.20841Z" fill="black"/>
</svg>
