<svg width="25" height="24" viewBox="0 0 25 24" fill="none" xmlns="http://www.w3.org/2000/svg">
<g clip-path="url(#clip0_517_1503)">
<path d="M4.5 16.5C5.60457 16.5 6.5 15.6046 6.5 14.5C6.5 13.3954 5.60457 12.5 4.5 12.5C3.39543 12.5 2.5 13.3954 2.5 14.5C2.5 15.6046 3.39543 16.5 4.5 16.5Z" fill="black"/>
<path d="M1.72 18.08C0.98 18.4 0.5 19.12 0.5 19.93V21.5H5V19.89C5 19.06 5.23 18.28 5.63 17.6C5.26 17.54 4.89 17.5 4.5 17.5C3.51 17.5 2.57 17.71 1.72 18.08Z" fill="black"/>
<path d="M20.5 16.5C21.6046 16.5 22.5 15.6046 22.5 14.5C22.5 13.3954 21.6046 12.5 20.5 12.5C19.3954 12.5 18.5 13.3954 18.5 14.5C18.5 15.6046 19.3954 16.5 20.5 16.5Z" fill="black"/>
<path d="M23.28 18.08C22.43 17.71 21.49 17.5 20.5 17.5C20.11 17.5 19.74 17.54 19.37 17.6C19.77 18.28 20 19.06 20 19.89V21.5H24.5V19.93C24.5 19.12 24.02 18.4 23.28 18.08Z" fill="black"/>
<path d="M16.74 17.15C15.57 16.63 14.13 16.25 12.5 16.25C10.87 16.25 9.43 16.64 8.26 17.15C7.18 17.63 6.5 18.71 6.5 19.89V21.5H18.5V19.89C18.5 18.71 17.82 17.63 16.74 17.15ZM8.57 19.5C8.66 19.27 8.84 19.08 9.06 18.98C10.16 18.49 11.32 18.25 12.49 18.25C13.67 18.25 14.82 18.5 15.92 18.98C16.15 19.08 16.32 19.27 16.41 19.5H8.57Z" fill="black"/>
<path d="M9.5 12.5C9.5 14.16 10.84 15.5 12.5 15.5C14.16 15.5 15.5 14.16 15.5 12.5C15.5 10.84 14.16 9.5 12.5 9.5C10.84 9.5 9.5 10.84 9.5 12.5ZM13.5 12.5C13.5 13.05 13.05 13.5 12.5 13.5C11.95 13.5 11.5 13.05 11.5 12.5C11.5 11.95 11.95 11.5 12.5 11.5C13.05 11.5 13.5 11.95 13.5 12.5Z" fill="black"/>
<path d="M2.98 11.36C2.67 10.6 2.5 9.86 2.5 9.1C2.5 6.52 4.52 4.5 7.1 4.5C9.78 4.5 10.92 6.24 12.5 8.09C14.07 6.26 15.2 4.5 17.9 4.5C20.48 4.5 22.5 6.52 22.5 9.1C22.5 9.86 22.33 10.6 22.02 11.36C22.67 11.67 23.2 12.18 23.55 12.8C24.15 11.6 24.5 10.38 24.5 9.1C24.5 5.4 21.6 2.5 17.9 2.5C15.81 2.5 13.81 3.47 12.5 5.01C11.19 3.47 9.19 2.5 7.1 2.5C3.4 2.5 0.5 5.4 0.5 9.1C0.5 10.38 0.85 11.6 1.46 12.8C1.81 12.18 2.34 11.67 2.98 11.36Z" fill="black"/>
</g>
<defs>
<clipPath id="clip0_517_1503">
<rect width="24" height="24" fill="white" transform="translate(0.5)"/>
</clipPath>
</defs>
</svg>
