<svg width="20" height="20" viewBox="0 0 20 20" fill="none" xmlns="http://www.w3.org/2000/svg">
<path d="M5.8335 11.25C7.21683 11.25 8.3335 10.1333 8.3335 8.75C8.3335 7.36667 7.21683 6.25 5.8335 6.25C4.45016 6.25 3.3335 7.36667 3.3335 8.75C3.3335 10.1333 4.45016 11.25 5.8335 11.25ZM5.8335 7.91667C6.29183 7.91667 6.66683 8.29167 6.66683 8.75C6.66683 9.20833 6.29183 9.58333 5.8335 9.58333C5.37516 9.58333 5.00016 9.20833 5.00016 8.75C5.00016 8.29167 5.37516 7.91667 5.8335 7.91667ZM15.8335 5.41667H9.16683V12.0833H2.50016V3.75H0.833496V16.25H2.50016V13.75H17.5002V16.25H19.1668V8.75C19.1668 6.90833 17.6752 5.41667 15.8335 5.41667ZM17.5002 12.0833H10.8335V7.08333H15.8335C16.7502 7.08333 17.5002 7.83333 17.5002 8.75V12.0833Z" fill="black"/>
</svg>
