<svg width="21" height="20" viewBox="0 0 21 20" fill="none" xmlns="http://www.w3.org/2000/svg">
<path d="M10.6663 1.6665C6.06634 1.6665 2.33301 5.39984 2.33301 9.99984C2.33301 14.5998 6.06634 18.3332 10.6663 18.3332C15.2663 18.3332 18.9997 14.5998 18.9997 9.99984C18.9997 5.39984 15.2663 1.6665 10.6663 1.6665ZM10.6663 16.6665C6.99134 16.6665 3.99967 13.6748 3.99967 9.99984C3.99967 6.32484 6.99134 3.33317 10.6663 3.33317C14.3413 3.33317 17.333 6.32484 17.333 9.99984C17.333 13.6748 14.3413 16.6665 10.6663 16.6665ZM11.408 9.24984C9.92468 8.75817 9.20801 8.44984 9.20801 7.6665C9.20801 6.8165 10.133 6.50817 10.7163 6.50817C11.808 6.50817 12.208 7.33317 12.2997 7.62484L13.6163 7.0665C13.4913 6.69984 12.933 5.47484 11.3997 5.20817V4.1665H9.94134V5.2165C7.77467 5.68317 7.75801 7.5915 7.75801 7.68317C7.75801 9.57484 9.63301 10.1082 10.5497 10.4415C11.8663 10.9082 12.4497 11.3332 12.4497 12.1332C12.4497 13.0748 11.5747 13.4748 10.7997 13.4748C9.28301 13.4748 8.84967 11.9165 8.79967 11.7332L7.41634 12.2915C7.94134 14.1165 9.31634 14.6082 9.93301 14.7582V15.8332H11.3913V14.7998C11.8247 14.7248 13.908 14.3082 13.908 12.1165C13.9163 10.9582 13.408 9.9415 11.408 9.24984Z" fill="black"/>
</svg>
