<svg width="32" height="32" viewBox="0 0 32 32" fill="none" xmlns="http://www.w3.org/2000/svg">
<g id="search">
<path id="Vector" d="M21.0067 19.0065H19.9533L19.58 18.6465C20.8867 17.1265 21.6733 15.1532 21.6733 13.0065C21.6733 8.21984 17.7933 4.33984 13.0067 4.33984C8.22 4.33984 4.34 8.21984 4.34 13.0065C4.34 17.7932 8.22 21.6732 13.0067 21.6732C15.1533 21.6732 17.1267 20.8865 18.6467 19.5798L19.0067 19.9532V21.0065L25.6733 27.6598L27.66 25.6732L21.0067 19.0065ZM13.0067 19.0065C9.68666 19.0065 7.00666 16.3265 7.00666 13.0065C7.00666 9.68651 9.68666 7.00651 13.0067 7.00651C16.3267 7.00651 19.0067 9.68651 19.0067 13.0065C19.0067 16.3265 16.3267 19.0065 13.0067 19.0065Z" fill="black"/>
</g>
</svg>
