<svg width="48" height="49" viewBox="0 0 48 49" fill="none" xmlns="http://www.w3.org/2000/svg">
<path d="M43.7957 18.28L41.6957 9.54C41.2557 7.74 39.6957 6.5 37.8757 6.5H10.0957C8.29568 6.5 6.71568 7.76 6.29568 9.54L4.19568 18.28C3.71568 20.32 4.15568 22.4 5.43568 24.04C5.59568 24.26 5.81568 24.42 5.99568 24.62V38.5C5.99568 40.7 7.79568 42.5 9.99568 42.5H37.9957C40.1957 42.5 41.9957 40.7 41.9957 38.5V24.62C42.1757 24.44 42.3957 24.26 42.5557 24.06C43.8357 22.42 44.2957 20.32 43.7957 18.28ZM37.8157 10.48L39.9157 19.22C40.1157 20.06 39.9357 20.9 39.4157 21.56C39.1357 21.92 38.5357 22.5 37.5357 22.5C36.3157 22.5 35.2557 21.52 35.1157 20.22L33.9557 10.5L37.8157 10.48ZM25.9957 10.5H29.9157L30.9957 19.54C31.0957 20.32 30.8557 21.1 30.3357 21.68C29.8957 22.2 29.2557 22.5 28.4357 22.5C27.0957 22.5 25.9957 21.32 25.9957 19.88V10.5ZM16.9757 19.54L18.0757 10.5H21.9957V19.88C21.9957 21.32 20.8957 22.5 19.4157 22.5C18.7357 22.5 18.1157 22.2 17.6357 21.68C17.1357 21.1 16.8957 20.32 16.9757 19.54ZM8.07568 19.22L10.0957 10.5H14.0357L12.8757 20.22C12.7157 21.52 11.6757 22.5 10.4557 22.5C9.47568 22.5 8.85568 21.92 8.59568 21.56C8.05568 20.92 7.87568 20.06 8.07568 19.22ZM9.99568 38.5V26.44C10.1557 26.46 10.2957 26.5 10.4557 26.5C12.1957 26.5 13.7757 25.78 14.9357 24.6C16.1357 25.8 17.7357 26.5 19.5557 26.5C21.2957 26.5 22.8557 25.78 24.0157 24.64C25.1957 25.78 26.7957 26.5 28.5957 26.5C30.2757 26.5 31.8757 25.8 33.0757 24.6C34.2357 25.78 35.8157 26.5 37.5557 26.5C37.7157 26.5 37.8557 26.46 38.0157 26.44V38.5H9.99568Z" fill="black"/>
</svg>
